<svg width="30" height="28" viewBox="0 0 30 28" fill="none" xmlns="http://www.w3.org/2000/svg">
<g clip-path="url(#clip0)">
<path d="M29.2875 10.759H1.84783C1.50359 10.759 1.22418 11.0052 1.22418 11.3085V24.4952C1.22418 26.0095 2.62238 27.2424 4.34231 27.2424H26.7929C28.5129 27.2424 29.9111 26.0095 29.9111 24.4952V11.3085C29.9111 11.0052 29.6318 10.759 29.2875 10.759ZM28.6639 24.4952C28.6639 25.404 27.8245 26.1435 26.793 26.1435H4.34237C3.31086 26.1435 2.47148 25.404 2.47148 24.4952V11.8579H28.6639V24.4952Z" fill="white"/>
<path d="M29.8913 5.67442L28.8298 2.12611C28.5854 1.26346 27.5851 0.721725 26.5935 0.919526L1.46623 6.17222C0.97232 6.27112 0.554469 6.53593 0.288803 6.91618C0.0231374 7.29638 -0.0554398 7.74473 0.0692664 8.17989L1.24418 12.2722C1.31405 12.5205 1.56849 12.6865 1.84784 12.6865C1.89771 12.6865 1.94886 12.6821 2.00248 12.67C2.33549 12.5964 2.53755 12.2974 2.45272 12.003L2.38414 11.7645L29.4259 6.35137C29.5906 6.31732 29.734 6.22718 29.8213 6.09974C29.91 5.97225 29.9336 5.81839 29.8913 5.67442ZM2.07866 10.6986L1.27792 7.91286C1.23676 7.76781 1.26418 7.61838 1.35153 7.49089C1.4401 7.36453 1.57977 7.2766 1.74938 7.24142L26.8766 1.98986C26.9215 1.97997 26.9676 1.9756 27.0125 1.9756C27.292 1.9756 27.5501 2.14481 27.6212 2.39865L28.5205 5.40414L2.07866 10.6986Z" fill="white"/>
<path d="M7.11626 10.8161C6.80692 10.6832 6.43526 10.7908 6.2781 11.0623L3.78357 15.4579C3.63015 15.7293 3.75486 16.0589 4.06297 16.1952C4.154 16.2348 4.24883 16.2535 4.34238 16.2535C4.57063 16.2535 4.79139 16.1425 4.90113 15.9491L7.39566 11.5536C7.54908 11.2821 7.42431 10.9524 7.11626 10.8161Z" fill="white"/>
<path d="M13.3514 10.8161C13.0433 10.6832 12.6691 10.7908 12.5144 11.0623L10.0199 15.4579C9.86648 15.7293 9.99119 16.0589 10.2993 16.1952C10.3903 16.2348 10.4852 16.2535 10.5787 16.2535C10.807 16.2535 11.0277 16.1425 11.1362 15.9491L13.6308 11.5536C13.7841 11.2821 13.6594 10.9524 13.3514 10.8161Z" fill="white"/>
<path d="M19.5876 10.8161C19.2807 10.6832 18.9066 10.7908 18.7506 11.0623L16.2561 15.4579C16.1027 15.7293 16.2274 16.0589 16.5355 16.1952C16.6265 16.2348 16.7214 16.2535 16.8149 16.2535C17.0432 16.2535 17.2639 16.1425 17.3724 15.9491L19.867 11.5536C20.0204 11.2821 19.8956 10.9524 19.5876 10.8161Z" fill="white"/>
<path d="M25.8239 10.8161C25.5146 10.6832 25.1429 10.7908 24.987 11.0623L22.4924 15.4579C22.339 15.7293 22.4637 16.0589 22.7718 16.1952C22.8629 16.2348 22.9577 16.2535 23.0512 16.2535C23.2795 16.2535 23.5003 16.1425 23.6088 15.9491L26.1033 11.5536C26.2567 11.2821 26.132 10.9524 25.8239 10.8161Z" fill="white"/>
<path d="M29.2875 15.1546H1.84783C1.50359 15.1546 1.22418 15.4007 1.22418 15.704C1.22418 16.0073 1.50359 16.2535 1.84783 16.2535H29.2875C29.633 16.2535 29.9112 16.0073 29.9112 15.704C29.9112 15.4007 29.6318 15.1546 29.2875 15.1546Z" fill="white"/>
<path d="M7.87835 9.7997L3.5828 6.01511C3.33958 5.80083 2.94418 5.80083 2.70097 6.01511C2.45775 6.2294 2.45775 6.57776 2.70097 6.79205L6.99652 10.5777C7.11877 10.6843 7.27838 10.7382 7.43805 10.7382C7.59772 10.7382 7.75733 10.6843 7.87835 10.5766C8.12157 10.3623 8.12157 10.014 7.87835 9.7997Z" fill="white"/>
<path d="M13.9799 8.57878L9.68064 4.7942C9.43742 4.57991 9.04202 4.57991 8.79881 4.7942C8.55559 5.00848 8.55559 5.35685 8.79881 5.57113L13.0969 9.35572C13.2191 9.46229 13.3787 9.51617 13.5384 9.51617C13.6981 9.51617 13.8577 9.46234 13.9799 9.35572C14.2231 9.14143 14.2231 8.79307 13.9799 8.57878Z" fill="white"/>
<path d="M20.0766 7.35794L15.7848 3.57227C15.5415 3.35799 15.1461 3.35799 14.9029 3.57227C14.6597 3.78656 14.6597 4.13492 14.9029 4.34921L19.1947 8.13488C19.317 8.24145 19.4766 8.29533 19.6363 8.29533C19.7959 8.29533 19.9556 8.24258 20.0766 8.13488C20.3198 7.92059 20.3198 7.57222 20.0766 7.35794Z" fill="white"/>
<path d="M26.1706 6.13818L21.8775 2.35252C21.6343 2.13823 21.2389 2.13823 20.9957 2.35252C20.7525 2.5668 20.7525 2.91517 20.9957 3.12945L25.2887 6.91512C25.411 7.02169 25.5706 7.07558 25.7303 7.07558C25.8899 7.07558 26.0496 7.02175 26.1706 6.91512C26.4138 6.70084 26.4138 6.35247 26.1706 6.13818Z" fill="white"/>
</g>
<defs>
<clipPath id="clip0">
<rect width="29.9231" height="26.3636" fill="white" transform="translate(0 0.878784)"/>
</clipPath>
</defs>
</svg>
